<svg width="32" height="32" viewBox="0 0 32 32" fill="none" xmlns="http://www.w3.org/2000/svg">
    <!-- Nib Base (Silver/White) -->
    <path d="M16 30L6 14H26L16 30Z" fill="#e2e8f0"/>
    <path d="M16 30V18" stroke="#0f172a" stroke-width="1.5" stroke-linecap="round"/>

    <!-- Dissolving Top (Pixels/Nodes) -->
    <!-- Row 1 (Transition) -->
    <rect x="6" y="10" width="3" height="3" rx="0.5" fill="#94a3b8"/>
    <rect x="10" y="11" width="3" height="3" rx="0.5" fill="#cbd5e1"/>
    <rect x="14.5" y="10" width="3" height="3" rx="0.5" fill="#e2e8f0"/>
    <rect x="19" y="11" width="3" height="3" rx="0.5" fill="#cbd5e1"/>
    <rect x="23" y="10" width="3" height="3" rx="0.5" fill="#94a3b8"/>

    <!-- Row 2 (Rising, glowing) -->
    <rect x="8" y="6" width="3" height="3" rx="0.5" fill="#06b6d4"/> <!-- Cyan -->
    <rect x="14.5" y="5" width="3" height="3" rx="0.5" fill="#a855f7"/> <!-- Purple -->
    <rect x="21" y="6" width="3" height="3" rx="0.5" fill="#06b6d4"/> <!-- Cyan -->

    <!-- Row 3 (Floating away) -->
    <rect x="12" y="1" width="2" height="2" rx="0.5" fill="#a855f7"/>
    <rect x="18" y="2" width="2" height="2" rx="0.5" fill="#22d3ee"/>
</svg>
